<svg width="302" height="166" viewBox="0 0 302 166" fill="none" xmlns="http://www.w3.org/2000/svg">
<g id="Group 239125">
<g id="Group 239124">
<path id="Ellipse 561" d="M35 0.5C39.6605 0.5 44.1442 2.73815 48.2695 6.87598C52.3967 11.0157 56.1367 17.0315 59.2881 24.5049C65.5901 39.4498 69.5 60.1306 69.5 83C69.5 105.869 65.5901 126.55 59.2881 141.495C56.1367 148.968 52.3967 154.984 48.2695 159.124C44.1442 163.262 39.6605 165.5 35 165.5C30.3395 165.5 25.8558 163.262 21.7305 159.124C17.6033 154.984 13.8633 148.968 10.7119 141.495C4.40993 126.55 0.5 105.869 0.5 83C0.5 60.1306 4.40993 39.4498 10.7119 24.5049C13.8633 17.0315 17.6033 11.0157 21.7305 6.87598C25.8558 2.73815 30.3395 0.5 35 0.5Z" stroke="#535358"/>
<path id="Ellipse 563" d="M140 0.5C144.66 0.5 149.144 2.73815 153.27 6.87598C157.397 11.0157 161.137 17.0315 164.288 24.5049C170.59 39.4498 174.5 60.1306 174.5 83C174.5 105.869 170.59 126.55 164.288 141.495C161.137 148.968 157.397 154.984 153.27 159.124C149.144 163.262 144.66 165.5 140 165.5C135.34 165.5 130.856 163.262 126.73 159.124C122.603 154.984 118.863 148.968 115.712 141.495C109.41 126.55 105.5 105.869 105.5 83C105.5 60.1306 109.41 39.4498 115.712 24.5049C118.863 17.0315 122.603 11.0157 126.73 6.87598C130.856 2.73815 135.34 0.5 140 0.5Z" stroke="#535358"/>
<path id="Ellipse 562" d="M88 0.5C92.6605 0.5 97.1442 2.73815 101.27 6.87598C105.397 11.0157 109.137 17.0315 112.288 24.5049C118.59 39.4498 122.5 60.1306 122.5 83C122.5 105.869 118.59 126.55 112.288 141.495C109.137 148.968 105.397 154.984 101.27 159.124C97.1442 163.262 92.6605 165.5 88 165.5C83.3395 165.5 78.8558 163.262 74.7305 159.124C70.6033 154.984 66.8633 148.968 63.7119 141.495C57.4099 126.55 53.5 105.869 53.5 83C53.5 60.1306 57.4099 39.4498 63.7119 24.5049C66.8633 17.0315 70.6033 11.0157 74.7305 6.87598C78.8558 2.73815 83.3395 0.5 88 0.5Z" stroke="#535358"/>
<path id="Ellipse 564" d="M192 0.5C196.66 0.5 201.144 2.73815 205.27 6.87598C209.397 11.0157 213.137 17.0315 216.288 24.5049C222.59 39.4498 226.5 60.1306 226.5 83C226.5 105.869 222.59 126.55 216.288 141.495C213.137 148.968 209.397 154.984 205.27 159.124C201.144 163.262 196.66 165.5 192 165.5C187.34 165.5 182.856 163.262 178.73 159.124C174.603 154.984 170.863 148.968 167.712 141.495C161.41 126.55 157.5 105.869 157.5 83C157.5 60.1306 161.41 39.4498 167.712 24.5049C170.863 17.0315 174.603 11.0157 178.73 6.87598C182.856 2.73815 187.34 0.5 192 0.5Z" stroke="#535358"/>
</g>
<g id="Group">
<path id="Vector" d="M266.714 48.876C267.014 54.5753 267.451 59.1822 268.244 62.9072C269.212 67.4595 270.718 70.7486 273.188 73.1162C275.656 75.4821 279.029 76.8722 283.612 77.749C286.772 78.3535 290.535 78.7143 295.015 78.9785C290.438 79.2483 286.609 79.6208 283.407 80.249C278.792 81.1545 275.419 82.5952 272.969 85.0557C270.52 87.5155 269.052 90.9355 268.117 95.6729C267.407 99.271 266.998 103.663 266.715 109.025C266.444 103.886 266.059 99.6382 265.402 96.127C264.526 91.445 263.16 88.016 260.894 85.5127C258.623 83.004 255.502 81.4821 251.234 80.5059C247.796 79.7195 243.584 79.2838 238.423 78.9795C243.511 78.6793 247.677 78.2519 251.087 77.4863C255.332 76.5334 258.453 75.0516 260.737 72.6152C263.017 70.1822 264.41 66.8524 265.309 62.3096C266.025 58.6936 266.431 54.2755 266.714 48.876Z" fill="#535358" stroke="#535358"/>
<path id="Vector_2" d="M138.18 48.7832C138.479 54.4826 138.916 59.0894 139.709 62.8145C140.678 67.3668 142.183 70.6558 144.653 73.0234C147.122 75.3893 150.494 76.7794 155.077 77.6562C158.236 78.2606 161.999 78.6216 166.478 78.8857C161.902 79.1555 158.073 79.5282 154.872 80.1562C150.257 81.0617 146.885 82.5025 144.435 84.9629C141.985 87.4227 140.517 90.8427 139.582 95.5801C138.872 99.1782 138.464 103.57 138.181 108.933C137.909 103.793 137.524 99.5454 136.867 96.0342C135.991 91.3523 134.625 87.9233 132.359 85.4199C130.089 82.9112 126.967 81.3894 122.699 80.4131C119.262 79.6267 115.049 79.1911 109.889 78.8867C114.976 78.5866 119.143 78.1591 122.553 77.3936C126.797 76.4407 129.919 74.9589 132.202 72.5225C134.482 70.0894 135.875 66.7597 136.774 62.2168C137.49 58.6009 137.896 54.1827 138.18 48.7832Z" fill="#535358" stroke="#535358"/>
</g>
<path id="Vector_3" d="M199.597 8.21875C199.585 10.0249 199.573 11.8401 199.582 12.9922L199.599 13.8984C200.177 28.4052 201.021 39.6194 202.861 48.3047C204.703 56.9954 207.552 63.208 212.181 67.6641C216.807 72.1185 223.153 74.7616 231.87 76.4365C239.893 77.9781 249.974 78.7065 262.652 79.249C249.768 79.8005 239.566 80.545 231.479 82.1387C222.704 83.8682 216.36 86.6078 211.769 91.2393C207.178 95.8699 204.397 102.333 202.618 111.382C200.841 120.427 200.055 132.116 199.497 147.247C199.496 147.271 199.497 147.311 199.496 147.368L199.392 144.647C198.858 131.233 198.098 120.635 196.536 112.249C194.87 103.302 192.283 96.8167 188.034 92.1016C183.781 87.3808 177.914 84.4912 169.811 82.6289C161.812 80.7909 151.587 79.9435 138.5 79.3447V79.1543C151.436 78.5625 161.575 77.7287 169.531 75.9346C177.593 74.1167 183.461 71.3042 187.74 66.7188C192.015 62.1371 194.651 55.8409 196.361 47.1631C197.964 39.0304 198.763 28.7591 199.313 15.7666L199.421 13.1309C199.453 12.299 199.535 9.08708 199.606 6.29395C199.603 6.91467 199.601 7.56625 199.597 8.21875Z" fill="#535358" stroke="#535358"/>
</g>
</svg>
