<?xml version="1.0" encoding="UTF-8"?>
<svg id="Layer_1" data-name="Layer 1" xmlns="http://www.w3.org/2000/svg" viewBox="0 0 642.27 132.02">
  <g id="Group_239126" data-name="Group 239126">
    <path id="Subtract" d="M316.33,47.83c.24.26.49.52.74.77-.56.74-1.09,1.51-1.58,2.32l-.23.38c-2.28,3.96-3.42,8.62-3.42,13.97v1.03c.15,5.09,1.3,9.56,3.46,13.39,2.35,4.04,5.57,7.2,9.66,9.47,3.88,2.08,8.28,3.18,13.21,3.31h.99c3.04.01,5.97-.42,8.78-1.29l.56-.18c2.99-.99,5.57-2.54,7.74-4.66l.51,5.18h10.18v-29.88h-28.16v10.21h16.38v.52c0,1.92-.6,3.55-1.79,4.88l-.22.25c-1.13,1.21-2.66,2.17-4.58,2.86l-.39.13c-1.96.61-4.17.91-6.65.91h-.6c-2.8-.07-5.34-.56-7.62-1.5l-.48-.21c-2.52-1.18-4.5-2.91-5.95-5.18-1.32-2.17-2.02-4.8-2.1-7.88v-.62s0-1.48,0-1.48c0-3.4.68-6.21,2.05-8.43.24-.37.48-.73.75-1.07.36.12.73.23,1.09.34-.37.44-.71.9-1.03,1.4l-.22.38c-1.07,1.92-1.64,4.36-1.64,7.38v1.48c0,3.16.66,5.75,1.93,7.84,1.32,2.06,3.14,3.66,5.49,4.77l.46.2c2.32.95,4.94,1.43,7.89,1.43,2.57,0,4.82-.34,6.76-.99,1.93-.7,3.37-1.65,4.37-2.81h0s0-.01,0-.01c.86-.96,1.34-2.08,1.46-3.41h-16.36v-12.52h30.16v32.19h-12.07l-.41-4.17c-1.96,1.59-4.19,2.79-6.67,3.61-3.08,1.02-6.29,1.52-9.62,1.52-5.45,0-10.34-1.13-14.63-3.43h-.01c-4.24-2.36-7.61-5.64-10.06-9.87h0c-2.42-4.32-3.62-9.35-3.62-15.06s1.26-10.75,3.83-15.01l.49-.78c.37-.57.76-1.12,1.16-1.65ZM50.16,46.44c1.05,1.3,1.98,2.72,2.77,4.26l.41.81c1.96,4.09,2.94,8.71,2.94,13.84s-1.11,10.21-3.34,14.49h0c-2.2,4.3-5.42,7.68-9.63,10.13h0c-4.18,2.42-9.25,3.6-15.17,3.6-5.87,0-10.94-1.18-15.16-3.6h-.01c-3.9-2.31-6.97-5.42-9.19-9.33l-.43-.79c-2.23-4.29-3.34-9.13-3.34-14.5,0-5.41,1.08-10.28,3.28-14.56h0s.43-.8.43-.8c.45-.8.94-1.56,1.47-2.3.24.27.48.53.73.79-.65.91-1.24,1.88-1.77,2.9l-.38.77c-1.84,3.9-2.76,8.3-2.76,13.2v.96c.14,4.79,1.2,9.1,3.2,12.94,2.13,4.09,5.21,7.32,9.22,9.69,3.8,2.17,8.35,3.33,13.65,3.46h1.07c5.62.01,10.4-1.07,14.34-3.25l.38-.21c4.05-2.37,7.13-5.6,9.22-9.69,2-3.84,3.06-8.15,3.19-12.94v-.96c.01-5.28-1.05-9.96-3.19-14.05-.74-1.45-1.61-2.79-2.6-4.01.23-.28.46-.56.69-.85ZM64,48.5c.25.28.51.55.78.82-.62,1.71-.92,3.62-.92,5.75v.4c.09,4.1,1.5,7.32,4.22,9.66,2.82,2.42,7.08,4.04,12.8,4.88l12.35,1.77c2.65.35,4.44.91,5.38,1.7.94.79,1.41,1.75,1.41,2.88v.27c-.12,1.35-1.08,2.47-2.88,3.35l-.37.17c-1.9.82-4.6,1.24-8.08,1.24h-1.11c-2.53-.07-4.63-.31-6.31-.74-1.92-.54-3.48-1.36-4.67-2.44-1.15-1.13-2.15-2.59-3.01-4.36l-11.46,3.92c1.37,3.65,3.31,6.56,5.82,8.73,2.52,2.12,5.48,3.65,8.9,4.58,3.2.83,6.64,1.27,10.33,1.33h.74c4.64,0,8.74-.56,12.29-1.68l.7-.23c3.48-1.2,6.23-2.97,8.25-5.29l.39-.47c1.92-2.45,2.94-5.44,3.06-8.97v-.71c.01-4.01-1.19-7.26-3.59-9.75l-.24-.24c-2.4-2.36-6.11-3.96-11.14-4.8l-1.02-.16-13.57-1.92c-2.24-.32-3.9-.82-4.98-1.49l-.21-.14c-.4-.29-.72-.62-.97-.98.74.16,1.5.31,2.27.43.92.42,2.24.78,4.01,1.03l13.57,1.92,1.04.16c5.12.86,9.04,2.5,11.65,5.06,2.8,2.75,4.19,6.41,4.19,10.86,0,4.1-1.1,7.62-3.33,10.46h0c-2.06,2.59-4.88,4.52-8.38,5.84l-.71.26c-3.83,1.32-8.26,1.97-13.28,1.97-4.03,0-7.8-.45-11.29-1.36h-.01c-3.53-.97-6.62-2.56-9.25-4.78h0c-2.67-2.31-4.72-5.39-6.14-9.2l-.45-1.2,13.31-4.55.39.81c.8,1.66,1.72,3,2.76,4.03,1.05.95,2.47,1.7,4.28,2.22,1.82.46,4.21.71,7.19.71,3.67,0,6.32-.47,8.06-1.31l.32-.17c1.54-.83,1.95-1.68,1.95-2.39s-.26-1.33-1-1.95c-.71-.59-2.26-1.14-4.9-1.49h-.01s-12.35-1.78-12.35-1.78h0c-5.61-.82-9.97-2.41-12.98-4.86l-.29-.24c-3.09-2.65-4.63-6.36-4.63-10.99,0-2.42.38-4.62,1.14-6.57ZM429.31,48.5c.26.28.52.55.78.82-.62,1.71-.92,3.62-.92,5.75v.4c.09,4.1,1.49,7.32,4.22,9.66,2.82,2.42,7.08,4.04,12.8,4.88l12.35,1.77c2.65.35,4.44.91,5.38,1.7.94.79,1.41,1.75,1.41,2.88v.27c-.12,1.35-1.08,2.47-2.88,3.35l-.37.17c-1.9.82-4.6,1.24-8.08,1.24h-1.11c-2.53-.07-4.63-.31-6.31-.74-1.92-.54-3.48-1.36-4.67-2.44-1.15-1.13-2.15-2.59-3.01-4.36l-11.46,3.92c1.37,3.65,3.31,6.56,5.82,8.73,2.52,2.12,5.48,3.65,8.9,4.58,3.2.83,6.64,1.27,10.33,1.33h.74c4.64,0,8.74-.56,12.29-1.68l.7-.23c3.48-1.2,6.23-2.97,8.25-5.29l.39-.47c1.92-2.45,2.94-5.44,3.06-8.97v-.71c.01-4.01-1.19-7.26-3.59-9.75l-.24-.24c-2.56-2.51-6.61-4.17-12.16-4.95l-13.57-1.92c-2.24-.32-3.9-.82-4.98-1.49l-.21-.14c-.4-.29-.72-.62-.97-.98.74.16,1.5.31,2.27.43.92.42,2.24.78,4.01,1.03l13.56,1.92,1.04.16c5.12.86,9.04,2.5,11.65,5.06,2.8,2.75,4.19,6.41,4.19,10.86,0,4.1-1.1,7.62-3.33,10.46h0c-2.06,2.59-4.87,4.52-8.38,5.84l-.71.26c-3.83,1.32-8.26,1.97-13.28,1.97-4.03,0-7.8-.45-11.29-1.36h-.01c-3.53-.97-6.62-2.56-9.25-4.78h0c-2.67-2.31-4.72-5.39-6.14-9.2l-.45-1.2,13.31-4.55.39.81c.8,1.66,1.73,3,2.77,4.03,1.05.95,2.46,1.7,4.28,2.22,1.82.46,4.21.71,7.19.71,3.67,0,6.32-.47,8.06-1.31l.32-.17c1.54-.83,1.95-1.68,1.95-2.39s-.26-1.33-1-1.95c-.71-.59-2.26-1.14-4.9-1.49h-.01s-12.35-1.78-12.35-1.78h0c-5.61-.82-9.97-2.41-12.98-4.86l-.29-.24c-3.09-2.65-4.63-6.36-4.63-10.99,0-2.42.38-4.62,1.14-6.57ZM194.69,43.28l-20.35,48.25h12.86l4.93-12.42h21.44l4.99,12.42h13.63l-15.11-35.82h1.11l15.59,36.98h-15.87l-4.99-12.42h-20.16l-4.93,12.42h-32.29l-13.2-21.29-6.47,7.1v14.19h-14.8v-36.98h1v35.82h12.8v-13.53l7.62-8.36,13.57,21.89h15.36l-19.71-30.91,4.44-4.91h1.45l-4.56,5.04,19.96,31.3,20.57-48.77h1.11ZM239.65,91.53h12.8v-16.86h10.5l8.83,16.86h14.59l-10.3-18.78c3.2-1.33,5.63-3.35,7.3-6.06,1.6-2.54,2.45-5.69,2.55-9.45v-.76c0-.26,0-.51,0-.77h1c0,.25.01.51.01.77,0,4.28-.89,7.93-2.74,10.87h0c-1.59,2.59-3.81,4.57-6.62,5.96l10.63,19.38h-16.97l-8.83-16.86h-8.93v16.86h-14.8v-36.98h1v35.82ZM391.34,58.57h26.56v12.81h-26.56v8.04h29.89v13.26h-44.69v-36.98h1v35.82h42.69v-10.94h-29.89v-10.35h26.56v-10.5h-26.56v-4.02h1v2.87ZM514.51,92.68h-14.8v-36.98h1v35.82h12.8v-35.82h1v36.98ZM553.93,58.57h26.56v12.81h-26.56v8.04h29.89v13.26h-44.69v-36.98h1v35.82h42.69v-10.94h-29.89v-10.35h26.56v-10.5h-26.56v-4.02h1v2.87ZM592.78,91.53h12.8v-16.86h10.5l8.83,16.86h14.59l-10.3-18.78c3.2-1.33,5.63-3.35,7.3-6.06,1.6-2.54,2.45-5.69,2.55-9.45v-.76c.01-.26,0-.51,0-.77h1c0,.25.01.51.01.77,0,4.28-.89,7.93-2.74,10.87h0c-1.59,2.59-3.81,4.57-6.62,5.96l10.63,19.38h-16.97l-8.83-16.86h-8.93v16.86h-14.8v-36.98h1v35.82ZM39.46,54.46c1.93,2.5,2.89,5.79,2.89,9.85v2.36c-.08,4.48-1.36,8-3.84,10.58-2.56,2.61-6.02,3.92-10.37,3.92l-.8-.02c-3.97-.15-7.16-1.45-9.56-3.9-2.48-2.58-3.76-6.11-3.84-10.58v-.44s0-1.92,0-1.92c0-3.77.83-6.86,2.48-9.29.35.11.71.22,1.07.32-1.68,2.25-2.55,5.2-2.55,8.97v1.92c0,4.42,1.2,7.75,3.5,10.15l.22.22c2.31,2.24,5.44,3.41,9.48,3.41s7.37-1.25,9.71-3.63c2.31-2.4,3.5-5.74,3.5-10.15v-1.92c0-4.04-1-7.16-2.94-9.46.35-.12.71-.25,1.05-.39ZM209.61,69.04h-13.38l6.72-16.57,6.66,16.57ZM197.81,67.89h10.24l-5.09-12.68-5.14,12.68ZM253.45,62.93h13.08c2.07,0,3.44-.53,4.28-1.39.82-.84,1.31-2.16,1.31-4.18v-.74c0-.32-.01-.63-.04-.92h1.01c.02.29.03.6.03.92v1.15c-.14,4.21-2.33,6.32-6.59,6.32h-14.08v-8.38h1v7.23ZM606.58,62.93h13.08c2.07,0,3.44-.53,4.28-1.39.82-.84,1.31-2.16,1.31-4.18v-.74c0-.32-.01-.63-.04-.92h1.01c.02.29.03.6.03.92v1.15c-.14,4.21-2.34,6.32-6.59,6.32h-14.08v-8.38h1v7.23ZM148.56,46.85l-13.67,15.16v-6.31h1v3.6l12.08-13.4.59.95ZM351.86,53.46c1.04,1.1,1.89,2.55,2.58,4.35l.16.45,9.16-2.54h3.5l.05.2-13.31,3.69-.32-.92c-.74-2.09-1.69-3.64-2.83-4.71.34-.16.68-.34,1.01-.52ZM110.78,47.1c.9,1.37,1.69,2.91,2.37,4.6l.48,1.2-12.82,4.59-.39-.84c-.29-.64-.62-1.22-.97-1.74.35-.11.69-.22,1.03-.33.2.32.39.66.58,1.02l.25.51,10.94-3.92c-.61-1.53-1.31-2.92-2.11-4.17.23-.3.45-.6.65-.92ZM476.1,47.1c.9,1.37,1.69,2.91,2.37,4.6l.48,1.2-12.82,4.59-.39-.84c-.29-.64-.62-1.21-.97-1.74.35-.11.69-.22,1.03-.33.2.32.39.66.58,1.02l.25.51,10.94-3.92c-.61-1.53-1.31-2.92-2.11-4.17.23-.3.45-.6.65-.92ZM330.35,53.46c-.12-.03-.24-.06-.35-.09.12.03.24.06.35.09ZM18.92,53.36c-.16-.04-.31-.08-.47-.12.16.04.31.08.47.12ZM442.44,53.26c-.12-.03-.24-.06-.36-.08.12.03.24.06.36.08ZM329.55,53.25c-.08-.02-.16-.04-.24-.07h0c.08.02.16.04.24.07ZM36.83,52.96c-.1.03-.2.06-.31.09h0c.1-.03.21-.06.31-.09ZM98.16,52.9c-.12.03-.23.07-.35.1.12-.03.24-.07.35-.1ZM463.48,52.9c-.12.03-.23.07-.35.1.12-.03.23-.07.35-.1ZM37.67,52.69c-.14.05-.28.09-.43.14.14-.05.29-.09.43-.14ZM266.64,49.97l.62,1.18c-.23-.02-.48-.02-.73-.02h-13.08v-1.16h13.08s.08,0,.11,0ZM619.77,49.97l.62,1.18c-.23-.02-.48-.02-.73-.02h-13.08v-1.16h13.08s.08,0,.12,0ZM532.56,51.12h-18.05v-1.16h17.05v-10.95h-17.05v-1.16h18.05v13.26ZM497.71,39.02h-15.05v10.95h15.05v1.16h-16.05v-13.26h16.05v1.16ZM281.95,42.64l.31.31c2.04,2.09,3.39,4.75,4.09,7.93l-4.64-8.47c.08.08.16.15.24.23ZM635.08,42.64l.31.31c2.04,2.09,3.4,4.75,4.09,7.93l-4.64-8.47c.08.08.16.15.24.23ZM108.91,46.11s-.06.07-.08.11h0s.06-.07.08-.11ZM474.23,46.11s-.06.07-.08.11h0s.06-.07.08-.11ZM109.25,45.61c-.07.12-.15.23-.23.34.08-.11.16-.23.23-.34ZM474.57,45.61c-.08.12-.15.23-.23.34.08-.11.16-.23.23-.34ZM167.45,44.81l-.6-.94,4.39-4.86h-7.49l-.74-1.16h10.72l-6.29,6.95ZM583.37,40.14h-1v-1.12h-28.44v-1.16h29.44v2.27ZM420.78,40.14h-1v-1.12h-28.44v-1.16h29.44v2.27ZM17.43,39.75c-.06-.05-.12-.1-.17-.15l-.25-.23c.14.13.28.26.42.39ZM87.79,36.98c3.2,0,6.27.35,9.2,1.04.02.08.02.15.02.22,0,.1-.01.22-.19.45-.09.11-.21.24-.38.38-2.56-.57-5.22-.88-7.99-.93h-.65c-3.56,0-6.79.35-9.7,1.04-.46-.27-.86-.56-1.21-.87,3.25-.89,6.89-1.33,10.91-1.33ZM453.11,36.98c3.2,0,6.27.35,9.2,1.04.02.08.02.15.02.22,0,.1-.01.22-.19.45-.09.11-.21.24-.38.38-2.56-.57-5.22-.88-7.99-.93h-.65c-3.56,0-6.79.35-9.7,1.04-.46-.27-.86-.56-1.21-.87,3.25-.89,6.89-1.33,10.91-1.33ZM340.2,37.05c3.64,0,6.95.42,9.92,1.26-.37.3-.78.59-1.25.85-2.37-.58-4.96-.89-7.77-.95h-.9c-2.9,0-5.62.3-8.18.92-.48-.25-.94-.53-1.37-.83,2.96-.84,6.15-1.25,9.55-1.25ZM613.95,38.84l.09.17h-7.46v-.17h7.37ZM260.82,38.84l.09.17h-7.46v-.17h7.37ZM28.14,36.98c2.74,0,5.29.26,7.66.78-.37.34-.76.65-1.18.93-1.7-.31-3.5-.5-5.4-.55h-1.08c-2.87-.01-5.53.28-7.98.87-.43-.26-.84-.55-1.23-.86,2.81-.79,5.88-1.18,9.21-1.18ZM464.29,38.78s-.01.07-.02.1c0-.04.02-.08.03-.12v.02Z" fill="#e9eaf8"/>
    <path id="OSKAR_GESTER" data-name="OSKAR GESTER" d="M27.14,54.28c-5.76,0-10.67-1.16-14.72-3.48-4.01-2.37-7.08-5.6-9.22-9.69C1.07,37.03,0,32.39,0,27.21s1.05-9.89,3.14-13.98c2.13-4.09,5.23-7.32,9.28-9.69S21.38,0,27.14,0s10.71,1.18,14.72,3.55c4.05,2.32,7.13,5.52,9.22,9.61,2.13,4.09,3.2,8.78,3.2,14.05s-1.07,9.81-3.2,13.9c-2.09,4.09-5.16,7.32-9.22,9.69-4.01,2.32-8.92,3.48-14.72,3.48ZM27.14,43.04c4.35,0,7.81-1.31,10.37-3.92,2.56-2.66,3.84-6.34,3.84-11.02v-1.92c0-4.68-1.28-8.33-3.84-10.95-2.56-2.66-6.02-3.99-10.37-3.99s-7.81,1.33-10.37,3.99c-2.56,2.61-3.84,6.26-3.84,10.95v1.92c0,4.68,1.28,8.36,3.84,11.02,2.56,2.61,6.02,3.92,10.37,3.92ZM86.92,54.28c-3.97,0-7.66-.44-11.07-1.33-3.41-.94-6.38-2.47-8.9-4.59-2.52-2.17-4.46-5.08-5.82-8.73l11.46-3.92c.85,1.77,1.86,3.23,3.01,4.36,1.19,1.08,2.75,1.9,4.67,2.44,1.92.49,4.39.74,7.42.74,3.71,0,6.53-.47,8.45-1.41s2.88-2.14,2.88-3.62c0-1.13-.47-2.1-1.41-2.88-.94-.79-2.73-1.36-5.38-1.7l-12.35-1.77c-5.72-.84-9.98-2.47-12.8-4.88-2.82-2.42-4.22-5.77-4.22-10.06,0-3.8.98-6.93,2.94-9.39,1.96-2.51,4.74-4.39,8.32-5.62,3.63-1.28,7.85-1.92,12.67-1.92,3.5,0,6.83.42,9.98,1.26,3.2.84,6.04,2.27,8.51,4.29,2.52,2.02,4.5,4.86,5.95,8.5l-10.94,3.92c-1.28-2.76-3.09-4.61-5.44-5.55-2.3-.94-5.33-1.41-9.09-1.41-3.16,0-5.7.39-7.62,1.18-1.88.74-2.82,1.82-2.82,3.25,0,1.23.51,2.22,1.54,2.96,1.07.74,2.79,1.28,5.18,1.63l13.57,1.92c5.55.79,9.6,2.44,12.16,4.95,2.56,2.51,3.84,5.84,3.84,9.98,0,3.85-1.02,7.07-3.07,9.69-2.05,2.56-4.93,4.49-8.64,5.77-3.71,1.28-8.04,1.92-12.99,1.92ZM121.09,53.39V.89h12.8v23L154.63.89h15.62l-19.52,21.59,19.71,30.91h-15.36l-13.57-21.89-7.62,8.36v13.53h-12.8ZM173.34,53.39L195.49.89h13.57l22.14,52.51h-13.63l-4.99-12.42h-21.44l-4.93,12.42h-12.86ZM195.23,30.91h13.38l-6.66-16.57-6.72,16.57ZM238.65,53.39V.89h28.03c6.06,0,10.6,1.5,13.63,4.51,3.07,2.96,4.61,7.27,4.61,12.94,0,4.09-.85,7.49-2.56,10.21-1.66,2.71-4.1,4.73-7.3,6.06l10.3,18.78h-14.59l-8.83-16.86h-10.5v16.86h-12.8ZM265.53,11.83h-14.08v14.13h14.08c4.39,0,6.59-2.24,6.59-6.73v-.74c0-4.44-2.2-6.66-6.59-6.66ZM338.18,54.36c-5.33,0-10.07-1.11-14.21-3.33-4.1-2.27-7.32-5.42-9.66-9.47-2.3-4.09-3.46-8.9-3.46-14.42s1.22-10.3,3.65-14.35,5.78-7.17,10.05-9.39,9.15-3.33,14.66-3.33c4.82,0,9,.74,12.54,2.22,3.58,1.43,6.48,3.43,8.7,5.99,2.26,2.51,3.8,5.4,4.61,8.65l-11.46,3.18c-.85-2.42-2.01-4.24-3.46-5.47-1.41-1.28-3.03-2.14-4.86-2.59-1.83-.49-3.8-.74-5.89-.74-2.9,0-5.55.57-7.94,1.7-2.35,1.08-4.22,2.74-5.63,4.95-1.36,2.22-2.05,5.03-2.05,8.43v1.48c0,3.35.7,6.19,2.11,8.5,1.45,2.27,3.43,3.99,5.95,5.18,2.56,1.13,5.46,1.7,8.7,1.7,2.64,0,4.99-.35,7.04-1.04,2.05-.74,3.65-1.77,4.8-3.11,1.2-1.33,1.79-2.96,1.79-4.88v-.52h-16.38v-10.21h28.16v29.88h-10.18l-.51-5.18c-2.18,2.12-4.76,3.67-7.74,4.66s-6.1,1.48-9.34,1.48ZM376.54,53.39V.89h42.24v10.95h-29.44v9.76h26.56v10.5h-26.56v10.35h29.89v10.95h-42.69ZM452.24,54.28c-3.97,0-7.66-.44-11.07-1.33-3.41-.94-6.38-2.47-8.9-4.59-2.52-2.17-4.46-5.08-5.82-8.73l11.46-3.92c.85,1.77,1.86,3.23,3.01,4.36,1.19,1.08,2.75,1.9,4.67,2.44,1.92.49,4.39.74,7.42.74,3.71,0,6.53-.47,8.45-1.41,1.92-.94,2.88-2.14,2.88-3.62,0-1.13-.47-2.1-1.41-2.88-.94-.79-2.73-1.36-5.38-1.7l-12.35-1.77c-5.72-.84-9.98-2.47-12.8-4.88-2.82-2.42-4.22-5.77-4.22-10.06,0-3.8.98-6.93,2.94-9.39,1.96-2.51,4.74-4.39,8.32-5.62,3.63-1.28,7.85-1.92,12.67-1.92,3.5,0,6.83.42,9.98,1.26,3.2.84,6.04,2.27,8.51,4.29,2.52,2.02,4.5,4.86,5.95,8.5l-10.94,3.92c-1.28-2.76-3.09-4.61-5.44-5.55-2.3-.94-5.33-1.41-9.09-1.41-3.16,0-5.7.39-7.62,1.18-1.88.74-2.82,1.82-2.82,3.25,0,1.23.51,2.22,1.54,2.96,1.07.74,2.79,1.28,5.18,1.63l13.57,1.92c5.55.79,9.6,2.44,12.16,4.95,2.56,2.51,3.84,5.84,3.84,9.98,0,3.85-1.02,7.07-3.07,9.69-2.05,2.56-4.93,4.49-8.64,5.77-3.71,1.28-8.04,1.92-12.99,1.92ZM499.71,53.39V11.83h-18.05V.89h48.9v10.95h-18.05v41.56h-12.8ZM539.13,53.39V.89h42.24v10.95h-29.44v9.76h26.56v10.5h-26.56v10.35h29.89v10.95h-42.69ZM591.78,53.39V.89h28.03c6.06,0,10.6,1.5,13.63,4.51,3.07,2.96,4.61,7.27,4.61,12.94,0,4.09-.85,7.49-2.56,10.21-1.66,2.71-4.1,4.73-7.3,6.06l10.3,18.78h-14.59l-8.83-16.86h-10.5v16.86h-12.8ZM618.66,11.83h-14.08v14.13h14.08c4.4,0,6.59-2.24,6.59-6.73v-.74c0-4.44-2.2-6.66-6.59-6.66Z" fill="#e9eaf8"/>
    <path id="Subtract_2" data-name="Subtract 2" d="M316.02,88.01c.25.26.5.52.75.77-.11.17-.21.34-.32.52l-.23.38c-2.28,3.96-3.42,8.62-3.42,13.97v1.03c.15,5.09,1.3,9.56,3.46,13.39,2.35,4.04,5.57,7.2,9.66,9.47,3.88,2.08,8.29,3.18,13.22,3.31h.99c3.04.01,5.97-.42,8.78-1.29l.56-.18c2.99-.99,5.57-2.54,7.74-4.66l.51,5.18h10.18v-29.88h-28.16v10.21h16.38v.52c0,1.92-.6,3.55-1.79,4.88l-.22.25c-1.13,1.21-2.66,2.17-4.58,2.86l-.39.12c-1.96.61-4.17.91-6.65.91h-.6c-2.8-.07-5.34-.57-7.62-1.5l-.48-.21c-2.52-1.18-4.5-2.91-5.95-5.18-1.32-2.17-2.02-4.8-2.11-7.88v-.62s0-1.48,0-1.48c0-2.95.52-5.46,1.54-7.52.33.12.66.23.99.34-1,1.89-1.54,4.27-1.54,7.18v1.48c0,3.16.66,5.75,1.93,7.84,1.33,2.06,3.14,3.66,5.49,4.77l.46.2c2.32.95,4.94,1.43,7.89,1.43,2.57,0,4.82-.34,6.76-.99,1.93-.7,3.37-1.65,4.37-2.81h0s0-.01,0-.01c.86-.96,1.34-2.08,1.46-3.41h-16.36v-12.52h30.16v32.19h-12.07l-.41-4.17c-1.96,1.59-4.19,2.79-6.68,3.61-3.08,1.02-6.29,1.52-9.62,1.52-5.45,0-10.34-1.13-14.63-3.44h-.01c-4.24-2.36-7.61-5.64-10.06-9.87h0c-2.42-4.32-3.62-9.35-3.62-15.06s1.26-10.75,3.83-15.01l.39-.63ZM52.42,86.59c.53.79,1.02,1.62,1.46,2.49l.41.81c1.96,4.09,2.94,8.71,2.94,13.84,0,5.37-1.11,10.21-3.34,14.49h0c-2.2,4.3-5.42,7.68-9.63,10.13h0c-4.18,2.42-9.25,3.6-15.17,3.6s-10.94-1.18-15.16-3.6h-.01c-3.9-2.31-6.97-5.42-9.19-9.33l-.43-.79c-2.23-4.29-3.34-9.13-3.34-14.5,0-5.41,1.08-10.28,3.28-14.56h0s.43-.8.43-.8c.08-.15.17-.29.25-.43.24.27.49.53.75.79-.2.34-.39.68-.57,1.03l-.38.77c-1.84,3.9-2.76,8.3-2.76,13.2v.96c.14,4.79,1.2,9.1,3.2,12.94,2.13,4.09,5.21,7.32,9.22,9.69,3.8,2.17,8.35,3.33,13.65,3.46h1.07c5.62.01,10.4-1.07,14.34-3.25l.38-.21c4.05-2.37,7.13-5.6,9.22-9.69,2-3.84,3.06-8.15,3.19-12.94v-.96c.01-5.27-1.05-9.96-3.19-14.05-.4-.78-.83-1.52-1.3-2.24.24-.28.47-.56.7-.84ZM64.24,89.25c.28.28.57.56.86.83-.19,1.06-.29,2.18-.29,3.37v.4c.09,4.1,1.5,7.32,4.22,9.66,2.82,2.42,7.08,4.04,12.8,4.88l12.35,1.77c2.65.35,4.44.91,5.38,1.7.94.79,1.41,1.75,1.41,2.88v.27c-.12,1.36-1.08,2.47-2.88,3.35l-.37.17c-1.9.82-4.6,1.24-8.08,1.24h-1.11c-2.53-.07-4.63-.31-6.31-.74-1.92-.54-3.48-1.36-4.67-2.44-1.15-1.13-2.15-2.59-3.01-4.36l-11.46,3.92c1.37,3.65,3.31,6.56,5.82,8.73,2.52,2.12,5.48,3.65,8.9,4.59,3.2.83,6.64,1.27,10.33,1.33h.74c4.64,0,8.74-.56,12.29-1.68l.7-.23c3.48-1.2,6.23-2.97,8.25-5.3l.39-.47c1.92-2.45,2.94-5.44,3.06-8.97v-.71c.01-4.01-1.19-7.26-3.59-9.75l-.24-.24c-2.4-2.36-6.11-3.96-11.14-4.8l-1.02-.16-8.51-1.21c1.89-.04,3.7-.17,5.45-.39l3.18.45,1.04.16c5.12.86,9.04,2.5,11.65,5.06,2.8,2.75,4.19,6.41,4.19,10.86,0,4.1-1.1,7.62-3.33,10.46h0c-2.06,2.59-4.87,4.52-8.38,5.84l-.71.26c-3.83,1.32-8.26,1.97-13.28,1.97-4.03,0-7.8-.45-11.29-1.36h-.01c-3.53-.97-6.62-2.56-9.25-4.78h0c-2.67-2.31-4.72-5.39-6.14-9.2l-.45-1.2,13.31-4.55.39.81c.8,1.66,1.72,3,2.76,4.03,1.05.95,2.46,1.7,4.28,2.22,1.82.46,4.21.71,7.19.71,3.67,0,6.32-.47,8.06-1.31l.32-.17c1.54-.83,1.95-1.68,1.95-2.39s-.26-1.33-1-1.95c-.71-.59-2.26-1.14-4.9-1.49h-.01s-12.35-1.78-12.35-1.78h0c-5.61-.82-9.97-2.41-12.98-4.86l-.29-.24c-3.09-2.65-4.63-6.36-4.63-10.99,0-1.48.14-2.88.43-4.19ZM429.55,89.25c.28.28.57.56.86.83-.19,1.06-.29,2.18-.29,3.37v.4c.09,4.1,1.5,7.32,4.22,9.66,2.82,2.42,7.08,4.04,12.8,4.88l12.35,1.77c2.64.35,4.44.91,5.38,1.7.94.79,1.41,1.75,1.41,2.88v.27c-.12,1.36-1.08,2.47-2.88,3.35l-.37.17c-1.9.82-4.6,1.24-8.08,1.24h-1.11c-2.53-.07-4.63-.31-6.31-.74-1.92-.54-3.48-1.36-4.67-2.44-1.15-1.13-2.15-2.59-3.01-4.36l-11.46,3.92c1.37,3.65,3.31,6.56,5.83,8.73,2.52,2.12,5.48,3.65,8.9,4.59,3.2.83,6.64,1.27,10.33,1.33h.74c4.64,0,8.74-.56,12.29-1.68l.7-.23c3.48-1.2,6.23-2.97,8.25-5.3l.39-.47c1.92-2.45,2.94-5.44,3.06-8.97v-.71c.01-4.01-1.19-7.26-3.59-9.75l-.24-.24c-2.56-2.51-6.61-4.17-12.16-4.95l-8.51-1.21c1.89-.04,3.7-.17,5.45-.39l3.18.45,1.04.16c5.12.86,9.04,2.5,11.65,5.06,2.8,2.75,4.19,6.41,4.19,10.86,0,4.1-1.1,7.62-3.33,10.46h0c-2.06,2.59-4.88,4.52-8.38,5.84l-.71.26c-3.83,1.32-8.26,1.97-13.28,1.97-4.03,0-7.8-.45-11.29-1.36h-.01c-3.53-.97-6.62-2.56-9.25-4.78h0c-2.67-2.31-4.72-5.39-6.14-9.2l-.45-1.2,13.31-4.55.39.81c.8,1.66,1.73,3,2.77,4.03,1.05.95,2.46,1.7,4.28,2.22,1.82.46,4.21.71,7.19.71,3.67,0,6.32-.47,8.06-1.31l.32-.17c1.54-.83,1.95-1.68,1.95-2.39s-.26-1.33-1-1.95c-.71-.59-2.26-1.14-4.9-1.49h-.01s-12.35-1.78-12.35-1.78h0c-5.61-.82-9.97-2.41-12.98-4.86l-.29-.24c-3.09-2.65-4.63-6.36-4.63-10.99,0-1.48.14-2.88.43-4.19ZM123.05,129.9h12.8v-13.53l7.61-8.36,13.57,21.89h15.36l-19.71-30.91,2.35-2.6h1.45l-2.47,2.73,19.96,31.3,14.35-34.03h1.11l-14.13,33.51h12.86l4.93-12.42h21.44l4.99,12.42h13.63l-14.13-33.51h1.11l14.62,34.67h-15.87l-4.99-12.42h-20.16l-4.93,12.42h-32.29l-13.2-21.29-6.47,7.1v14.19h-14.8v-34.67h1v33.51ZM240.6,129.9h12.8v-16.86h10.5l8.83,16.86h14.59l-10.3-18.78c3.2-1.33,5.63-3.35,7.3-6.06,1.49-2.36,2.33-5.25,2.52-8.66h1c-.19,3.62-1.08,6.74-2.7,9.33h0c-1.59,2.59-3.81,4.57-6.62,5.96l10.63,19.38h-16.97l-8.83-16.86h-8.93v16.86h-14.8v-34.67h1v33.51ZM392.3,96.94h26.56v12.81h-26.56v8.04h29.89v13.26h-44.69v-34.67h1v33.51h42.69v-10.95h-29.89v-10.35h26.56v-10.5h-26.56v-1.71h1v.55ZM515.46,131.05h-14.8v-34.67h1v33.51h12.8v-33.51h1v34.67ZM554.88,96.94h26.56v12.81h-26.56v8.04h29.89v13.26h-44.69v-34.67h1v33.51h42.69v-10.95h-29.89v-10.35h26.56v-10.5h-26.56v-1.71h1v.55ZM593.73,129.9h12.8v-16.86h10.5l8.83,16.86h14.59l-10.3-18.78c3.2-1.33,5.63-3.35,7.3-6.06,1.49-2.36,2.33-5.25,2.52-8.66h1c-.19,3.62-1.08,6.74-2.7,9.33h0c-1.59,2.59-3.81,4.57-6.62,5.96l10.63,19.38h-16.97l-8.83-16.86h-8.93v16.86h-14.8v-34.67h1v33.51ZM41.63,94.78c1.11,2.19,1.67,4.82,1.67,7.9v2.36c-.08,4.48-1.36,8-3.84,10.58-2.56,2.61-6.02,3.92-10.37,3.92l-.8-.02c-3.98-.15-7.16-1.45-9.56-3.9-2.48-2.58-3.76-6.11-3.84-10.58v-.44s0-1.92,0-1.92c0-2.78.45-5.2,1.36-7.26.32.11.65.22.98.32-.89,1.91-1.34,4.21-1.34,6.93v1.92c0,4.42,1.2,7.75,3.5,10.15l.22.22c2.31,2.24,5.44,3.41,9.48,3.41s7.37-1.25,9.71-3.63c2.31-2.4,3.5-5.74,3.5-10.15v-1.92c0-3-.55-5.49-1.63-7.51.32-.12.65-.25.96-.39ZM210.56,107.42h-13.38l6.72-16.57,6.66,16.57ZM198.76,106.26h10.24l-5.09-12.68-5.14,12.68ZM254.4,101.31h13.08c2.07,0,3.44-.53,4.28-1.39.73-.74,1.19-1.87,1.29-3.53h1c-.21,4.05-2.4,6.07-6.57,6.07h-14.08v-6.07h1v4.92ZM607.53,101.31h13.08c2.07,0,3.44-.53,4.28-1.39.73-.74,1.19-1.87,1.29-3.53h1c-.21,4.05-2.4,6.07-6.57,6.07h-14.08v-6.07h1v4.92ZM148.06,86.84l-12.21,13.55v-4h1v1.29l1.16-1.29h.84v-.93l8.62-9.57.59.95ZM354.95,97.98l-.32-.92c-.08-.23-.17-.45-.25-.67h1.09l.08.23.83-.23h4.28l-5.71,1.59ZM112.91,87.48c.43.82.83,1.68,1.19,2.6l.48,1.2-12.82,4.59-.25-.54c.17-.05.34-.11.5-.16l.78-.28c1.6-.6,3.09-1.33,4.47-2.2l5.93-2.12c-.3-.76-.63-1.49-.98-2.18.08-.09.16-.18.23-.28v-.02s.03-.02.03-.02c.15-.19.3-.39.44-.59ZM478.23,87.48c.43.82.83,1.68,1.19,2.6l.48,1.2-12.82,4.59-.25-.54c.17-.05.34-.11.5-.16l.78-.28c1.6-.6,3.09-1.33,4.47-2.2l5.93-2.12c-.3-.76-.63-1.49-.98-2.18.08-.09.16-.18.23-.28v-.02s.02-.02.02-.02c.15-.19.3-.39.44-.59ZM330.5,91.62c-.08-.02-.16-.04-.24-.07h0c.08.02.16.04.24.07ZM37.47,91.43h0c.1-.03.21-.06.31-.09-.1.03-.2.06-.31.09ZM618.99,89.49h-9.46v-1.16h8.86l.6,1.16ZM265.86,89.49h-9.46v-1.16h8.86l.61,1.16ZM496.66,77.39h-13.05v10.95h13.05v1.16h-14.05v-13.26h14.05v1.16ZM533.51,89.49h-16.05v-1.16h15.05v-10.95h-15.05v-1.16h16.05v13.26ZM194.67,83.96l-.21.5.2-.5h.01ZM169.86,81.58l-.6-.94,2.94-3.25h-5.01l-.74-1.16h8.23l-4.83,5.34ZM18.3,78.05s.05.05.08.07c-.06-.05-.12-.1-.17-.15h-.01s.07.05.1.08ZM18.07,77.83s.05.05.07.07l-.17-.16s.07.06.1.1ZM465.24,77.15s-.01.07-.02.1c0-.04.02-.08.02-.12v.02ZM345.18,76.72c-.06.01-.13.02-.2.03-.13-.01-.26-.02-.38-.03h.58ZM92.69,76.61h.02s.02,0,.02,0c.14.02.28.04.42.06-.08.01-.16.03-.24.04-1.15-.12-2.32-.19-3.52-.2h-.65c-1.67,0-3.26.07-4.79.23-.68-.09-1.29-.21-1.82-.34-.44-.13-.83-.27-1.18-.41,1.27-.22,2.6-.39,3.97-.49l7.77,1.12ZM458.01,76.61h.02s.02,0,.02,0c.14.02.28.04.42.06-.08.01-.16.03-.24.04-1.15-.12-2.32-.19-3.52-.2h-.65c-1.67,0-3.26.07-4.79.23-.68-.09-1.29-.21-1.82-.34-.44-.13-.83-.27-1.18-.41,1.27-.22,2.6-.39,3.97-.49l7.77,1.12ZM29.09,75.35c1.58,0,3.1.09,4.56.27-.8.41-1.72.73-2.77.93-.24-.01-.47-.02-.71-.02h-1.08c-1.11-.01-2.18.03-3.23.12-1.09-.16-2.04-.43-2.88-.8,1.93-.32,3.96-.49,6.1-.49Z" fill="#e9eaf8"/>
  </g>
</svg>