<svg width="645" height="133" viewBox="0 0 645 133" fill="none" xmlns="http://www.w3.org/2000/svg">
<g id="Group 239126">
<path id="Subtract" d="M318.377 59.1885C318.621 59.4153 318.868 59.6387 319.122 59.8564C318.561 60.4945 318.034 61.1628 317.547 61.8643L317.322 62.1943C315.04 65.6223 313.899 69.6511 313.899 74.2803L313.912 75.1689C314.047 79.5764 315.195 83.4398 317.355 86.7598C319.702 90.2583 322.923 92.9895 327.019 94.9521C330.899 96.7522 335.304 97.7079 340.234 97.8203L341.227 97.832C344.267 97.832 347.195 97.4571 350.01 96.707L350.571 96.5518C353.558 95.6984 356.14 94.3541 358.315 92.5195L358.827 97H369.003V71.1436H340.843V79.9756H357.227V80.4238C357.227 82.0878 356.629 83.4964 355.435 84.6484L355.214 84.8613C354.081 85.9113 352.555 86.736 350.635 87.3359L350.247 87.4443C348.292 87.9693 346.075 88.2324 343.595 88.2324L342.991 88.2266C340.191 88.1729 337.652 87.7435 335.375 86.9385L334.891 86.7598C332.374 85.7358 330.39 84.2426 328.939 82.2803C327.619 80.4003 326.917 78.1264 326.835 75.459L326.827 74.9199V73.6396C326.827 70.6958 327.51 68.2637 328.875 66.3438C329.111 66.0223 329.36 65.7149 329.622 65.4209C329.983 65.5252 330.348 65.6222 330.716 65.7148C330.348 66.0915 330.006 66.4943 329.69 66.9238L329.469 67.251C328.395 68.9156 327.827 71.0256 327.827 73.6396V74.9199C327.827 77.6524 328.487 79.894 329.755 81.7012C331.08 83.4873 332.898 84.8665 335.249 85.8262L335.708 85.9951C338.024 86.8139 340.649 87.2324 343.595 87.2324C346.167 87.2324 348.417 86.9413 350.355 86.376C352.287 85.77 353.723 84.9445 354.728 83.9404L354.734 83.9346L354.741 83.9277C355.605 83.095 356.085 82.124 356.199 80.9756H339.843V70.1436H370.003V98H357.935L357.521 94.3877C355.556 95.7625 353.329 96.8041 350.846 97.5137C347.766 98.3936 344.558 98.832 341.227 98.832C335.773 98.832 330.889 97.8498 326.599 95.8594L326.587 95.8535C322.343 93.8199 318.978 90.976 316.524 87.3174L316.517 87.3057C314.094 83.5815 312.899 79.2263 312.899 74.2803C312.899 69.3234 314.163 64.9792 316.726 61.293L317.214 60.6162C317.583 60.1237 317.972 59.6487 318.377 59.1885ZM52.2109 57.9775C53.2634 59.102 54.1867 60.3314 54.9766 61.668L55.3828 62.3701C57.3474 65.9121 58.3203 69.9116 58.3203 74.3438C58.3203 78.9866 57.2123 83.1756 54.9805 86.8838L54.9814 86.8848C52.7836 90.6076 49.56 93.5275 45.3545 95.6523L45.3516 95.6543C41.1674 97.7464 36.0974 98.7676 30.1836 98.7676C24.3108 98.7675 19.2441 97.7458 15.0205 95.6562L15.0088 95.6504C11.1074 93.6581 8.03522 90.9689 5.82227 87.5791L5.3916 86.8916C3.15672 83.1816 2.04785 78.9898 2.04785 74.3438C2.04789 69.6607 3.1328 65.4496 5.32324 61.7393L5.32715 61.7324L5.75879 61.0439C6.21088 60.3523 6.70071 59.6909 7.22559 59.0576C7.46439 59.29 7.70745 59.519 7.95703 59.7422C7.30669 60.5315 6.71484 61.3662 6.18359 62.248L5.80469 62.918C3.96722 66.2954 3.04789 70.1038 3.04785 74.3438L3.06055 75.1787C3.18558 79.3236 4.24808 83.056 6.24805 86.376C8.38134 89.9172 11.4533 92.7118 15.4639 94.7598C19.2639 96.6398 23.8142 97.6384 29.1143 97.7559L30.1836 97.7676C35.8049 97.7676 40.5858 96.8272 44.5254 94.9453L44.9043 94.7598C48.9575 92.7118 52.0295 89.9172 54.1201 86.376C56.1201 83.056 57.1826 79.3236 57.3076 75.1787L57.3203 74.3438C57.3203 69.7785 56.2534 65.7249 54.1201 62.1836C53.379 60.9282 52.5123 59.7713 51.5244 58.709C51.7591 58.47 51.9877 58.226 52.2109 57.9775ZM66.0449 59.7627C66.2997 60.0055 66.5598 60.2429 66.8281 60.4717C66.2129 61.9502 65.9033 63.6086 65.9033 65.4482L65.9072 65.7939C65.9926 69.3407 67.399 72.1271 70.127 74.1523C72.9429 76.2429 77.2096 77.6506 82.9268 78.376L95.2793 79.9121C97.9245 80.2108 99.7166 80.7011 100.655 81.3838C101.594 82.0664 102.063 82.8986 102.063 83.8799L102.052 84.1172C101.939 85.2897 100.983 86.2556 99.1826 87.0156L98.8125 87.1631C96.9076 87.8756 94.2152 88.2324 90.7354 88.2324L89.625 88.2217C87.0957 88.175 84.9905 87.9651 83.3105 87.5918C81.3908 87.1225 79.8332 86.419 78.6387 85.4805C77.4867 84.4991 76.4842 83.2401 75.6309 81.7041L64.1748 85.0957C65.5401 88.253 67.4817 90.7711 69.999 92.6484C72.5162 94.4829 75.4815 95.8056 78.8945 96.6162C82.0946 97.3362 85.5389 97.7187 89.2266 97.7637L89.9668 97.7676C94.6068 97.7676 98.7033 97.2807 102.256 96.3057L102.959 96.1035C106.439 95.0635 109.188 93.5364 111.205 91.5215L111.599 91.1123C113.519 88.9923 114.539 86.4032 114.659 83.3457L114.671 82.7275C114.671 79.2558 113.47 76.4445 111.067 74.2939L110.831 74.0879C108.431 72.0479 104.718 70.664 99.6934 69.9365L98.6709 69.7998L85.1025 68.1357C82.8628 67.8557 81.2044 67.4257 80.127 66.8457L79.9189 66.7275C79.5175 66.4766 79.1953 66.1924 78.9512 65.876C79.6961 66.0173 80.4519 66.1416 81.2188 66.249C82.1386 66.6133 83.4566 66.9223 85.2266 67.1436L98.793 68.8076L99.832 68.9463C104.948 69.6863 108.874 71.1125 111.479 73.3262C114.278 75.706 115.671 78.8727 115.671 82.7275C115.671 86.2792 114.57 89.3206 112.34 91.7832L112.334 91.79C110.272 94.024 107.459 95.695 103.955 96.8398L103.245 97.0625C99.4187 98.206 94.9875 98.7676 89.9668 98.7676C85.9348 98.7676 82.1699 98.3779 78.6758 97.5918L78.6641 97.5889C75.138 96.7514 72.0474 95.3781 69.4102 93.4561L69.4014 93.4492C66.7307 91.4575 64.6848 88.7952 63.2568 85.4932L62.8096 84.457L76.1162 80.5176L76.5049 81.2188C77.3046 82.6583 78.2295 83.8129 79.2695 84.7031C80.3224 85.5268 81.7346 86.1766 83.5488 86.6201C85.3678 87.022 87.7552 87.2324 90.7354 87.2324C94.4016 87.2324 97.0583 86.8276 98.7939 86.0947L99.1172 85.9512C100.658 85.2325 101.063 84.4961 101.063 83.8799C101.063 83.2796 100.8 82.7259 100.066 82.1924C99.3601 81.6789 97.8088 81.2035 95.167 80.9053L95.1553 80.9043L82.8037 79.3682H82.8008C77.1914 78.6565 72.8264 77.283 69.8174 75.1621L69.5312 74.9551C66.4444 72.6633 64.9034 69.455 64.9033 65.4482C64.9033 63.3546 65.281 61.4539 66.0449 59.7627ZM431.362 59.7627C431.617 60.0056 431.877 60.2429 432.146 60.4717C431.53 61.9503 431.221 63.6086 431.221 65.4482L431.225 65.7939C431.31 69.3407 432.716 72.1271 435.444 74.1523C438.26 76.2429 442.527 77.6506 448.244 78.376L460.597 79.9121C463.242 80.2108 465.034 80.7011 465.973 81.3838C466.911 82.0664 467.381 82.8986 467.381 83.8799L467.369 84.1172C467.257 85.2896 466.301 86.2556 464.501 87.0156L464.13 87.1631C462.225 87.8756 459.533 88.2324 456.053 88.2324L454.942 88.2217C452.413 88.175 450.309 87.9651 448.629 87.5918C446.709 87.1225 445.151 86.4191 443.956 85.4805C442.804 84.4991 441.802 83.2401 440.948 81.7041L429.492 85.0957C430.858 88.253 432.799 90.7711 435.316 92.6484C437.834 94.483 440.8 95.8056 444.213 96.6162C447.413 97.3362 450.857 97.7187 454.544 97.7637L455.284 97.7676C459.924 97.7676 464.021 97.2807 467.573 96.3057L468.276 96.1035C471.756 95.0635 474.505 93.5364 476.522 91.5215L476.917 91.1123C478.837 88.9923 479.857 86.4032 479.977 83.3457L479.988 82.7275C479.988 79.2557 478.787 76.4445 476.385 74.2939L476.148 74.0879C473.588 71.9119 469.535 70.4825 463.988 69.7998L450.421 68.1357C448.181 67.8557 446.522 67.4257 445.444 66.8457L445.236 66.7275C444.835 66.4766 444.513 66.1924 444.269 65.876C445.014 66.0174 445.771 66.1415 446.538 66.249C447.458 66.613 448.776 66.9224 450.545 67.1436L464.11 68.8076L465.149 68.9463C470.265 69.6863 474.192 71.1125 476.796 73.3262C479.596 75.706 480.988 78.8727 480.988 82.7275C480.988 86.2792 479.887 89.3206 477.657 91.7832L477.651 91.79C475.589 94.024 472.777 95.695 469.272 96.8398L468.562 97.0625C464.736 98.206 460.305 98.7676 455.284 98.7676C451.252 98.7676 447.487 98.3779 443.993 97.5918L443.981 97.5889C440.455 96.7514 437.365 95.3781 434.728 93.4561L434.719 93.4492C432.048 91.4575 430.002 88.7952 428.574 85.4932L428.127 84.457L441.434 80.5176L441.822 81.2188C442.622 82.6583 443.547 83.8129 444.587 84.7031C445.64 85.5268 447.052 86.1766 448.866 86.6201C450.685 87.022 453.073 87.2324 456.053 87.2324C459.719 87.2324 462.376 86.8275 464.111 86.0947L464.435 85.9512C465.975 85.2325 466.381 84.4961 466.381 83.8799C466.381 83.2796 466.118 82.7259 465.385 82.1924C464.679 81.6788 463.127 81.2036 460.484 80.9053L460.473 80.9043L448.121 79.3682H448.118C442.509 78.6565 438.145 77.2827 435.136 75.1621L434.849 74.9551C431.762 72.6633 430.221 69.455 430.221 65.4482C430.221 63.3546 430.598 61.454 431.362 59.7627ZM196.738 55.248L176.392 97H189.256L194.184 86.248H215.624L220.616 97H234.248L219.142 66H220.254L235.848 98H219.978L214.985 87.248H194.825L189.897 98H157.612L144.413 79.5723L137.942 85.7168V98H123.142V66H124.142V97H136.942V85.2881L144.558 78.0557L158.126 97H173.486L153.774 70.248L158.211 66H159.656L155.1 70.3623L175.06 97.4502L195.626 55.248H196.738ZM241.697 97H254.497V82.4082H264.993L273.825 97H288.417L278.113 80.7441C281.313 79.5921 283.745 77.8427 285.409 75.4961C287.009 73.2962 287.859 70.5712 287.959 67.3213L287.969 66.6641C287.969 66.4403 287.964 66.2189 287.958 66H288.958C288.964 66.2193 288.969 66.4406 288.969 66.6641C288.969 70.3644 288.075 73.5226 286.224 76.0732L286.225 76.0742C284.634 78.3172 282.411 80.0276 279.604 81.2295L290.234 98H273.262L264.43 83.4082H255.497V98H240.697V66H241.697V97ZM393.392 68.4805H419.952V79.5684H393.392V86.5283H423.28V98H378.592V66H379.592V97H422.28V87.5283H392.392V78.5684H418.952V69.4805H392.392V66H393.392V68.4805ZM516.557 98H501.757V66H502.757V97H515.557V66H516.557V98ZM555.975 68.4805H582.534V79.5684H555.975V86.5283H585.862V98H541.175V66H542.175V97H584.862V87.5283H554.975V78.5684H581.534V69.4805H554.975V66H555.975V68.4805ZM594.827 97H607.627V82.4082H618.123L626.955 97H641.547L631.243 80.7441C634.443 79.5921 636.875 77.8427 638.539 75.4961C640.139 73.2962 640.989 70.5712 641.089 67.3213L641.099 66.6641C641.099 66.4403 641.094 66.2189 641.088 66H642.088C642.094 66.2193 642.099 66.4406 642.099 66.6641C642.099 70.3644 641.205 73.5226 639.354 76.0732L639.354 76.0742C637.764 78.3172 635.541 80.0276 632.734 81.2295L643.365 98H626.392L617.56 83.4082H608.627V98H593.827V66H594.827V97ZM41.5029 64.9238C43.4284 67.0914 44.3916 69.9329 44.3916 73.4482V75.1123L44.3887 75.4893C44.3112 79.3631 43.0318 82.4164 40.5518 84.6484C37.9918 86.9096 34.5354 88.04 30.1836 88.04L29.3789 88.0264C25.404 87.8939 22.2164 86.7683 19.8164 84.6484C17.3364 82.4164 16.057 79.3631 15.9795 75.4893L15.9756 75.1123V73.4482C15.9756 70.1892 16.8039 67.5098 18.459 65.4092C18.8102 65.508 19.1652 65.6016 19.5244 65.6895C17.8443 67.6342 16.9756 70.1918 16.9756 73.4482V75.1123C16.9756 78.9332 18.1713 81.8185 20.4785 83.8984L20.6992 84.0889C23.0103 86.0246 26.1374 87.04 30.1836 87.04C34.3605 87.04 37.5582 85.9578 39.8896 83.8984C42.1968 81.8185 43.3915 78.9332 43.3916 75.1123V73.4482C43.3916 69.9478 42.3885 67.2549 40.4521 65.2627C40.807 65.1558 41.1571 65.0424 41.5029 64.9238ZM211.656 77.5439H198.28L205 63.208L211.656 77.5439ZM199.854 76.5439H210.089L204.995 65.5732L199.854 76.5439ZM255.497 72.2559H268.577C270.649 72.2558 272.016 71.7959 272.859 71.0508C273.679 70.3265 274.169 69.1844 274.169 67.4316V66.792C274.169 66.5124 274.155 66.2488 274.13 66H275.135C275.157 66.2543 275.169 66.5182 275.169 66.792V67.4316L275.162 67.79C275.029 71.434 272.834 73.2558 268.577 73.2559H254.497V66H255.497V72.2559ZM608.627 72.2559H621.707C623.779 72.2559 625.146 71.7959 625.989 71.0508C626.809 70.3265 627.299 69.1844 627.299 67.4316V66.792C627.299 66.5124 627.285 66.2488 627.26 66H628.265C628.287 66.2543 628.299 66.5182 628.299 66.792V67.4316L628.293 67.79C628.16 71.434 625.964 73.2558 621.707 73.2559H607.627V66H608.627V72.2559ZM150.612 58.3408L136.942 71.4639V66H137.942V69.1172L150.024 57.5195L150.612 58.3408ZM353.909 64.0527C354.944 65.0051 355.804 66.259 356.487 67.8145L356.651 68.2002L365.811 66H369.307L369.357 66.1758L356.05 69.373L355.726 68.5781C354.988 66.7717 354.037 65.4323 352.901 64.5029C353.243 64.3605 353.578 64.2095 353.909 64.0527ZM112.829 58.5537C113.732 59.741 114.522 61.0681 115.195 62.5342L115.671 63.5703L102.852 67.543L102.462 66.8164C102.167 66.266 101.843 65.7645 101.491 65.3105C101.839 65.2183 102.183 65.1236 102.521 65.0225C102.722 65.3027 102.915 65.5963 103.097 65.9053L103.343 66.3438L114.287 62.9521C113.678 61.6257 112.973 60.4246 112.175 59.3467C112.404 59.0881 112.622 58.8238 112.829 58.5537ZM478.147 58.5527C479.05 59.7402 479.839 61.0681 480.513 62.5342L480.989 63.5703L468.169 67.543L467.779 66.8164C467.485 66.2663 467.161 65.7653 466.809 65.3115C467.156 65.2193 467.5 65.1246 467.839 65.0234C468.04 65.3035 468.233 65.5966 468.414 65.9053L468.66 66.3438L479.604 62.9521C478.995 61.6257 478.29 60.4246 477.492 59.3467C477.722 59.0877 477.941 58.8232 478.147 58.5527ZM332.4 64.0527C332.282 64.0276 332.163 64.002 332.045 63.9756C332.163 64.002 332.282 64.0276 332.4 64.0527ZM20.9678 63.9678C20.81 63.9344 20.653 63.9007 20.4971 63.8652C20.653 63.9007 20.81 63.9344 20.9678 63.9678ZM444.486 63.8818C444.366 63.8585 444.246 63.8338 444.126 63.8096C444.246 63.8338 444.366 63.8585 444.486 63.8818ZM331.6 63.873C331.52 63.8541 331.44 63.8359 331.361 63.8164L331.363 63.8145C331.442 63.8338 331.521 63.8542 331.6 63.873ZM38.876 63.627C38.7742 63.6537 38.6719 63.6793 38.5693 63.7051L38.5674 63.7041C38.6705 63.6782 38.7737 63.6538 38.876 63.627ZM100.209 63.5723C100.092 63.6005 99.9747 63.63 99.8564 63.6572C99.9747 63.63 100.092 63.6005 100.209 63.5723ZM465.526 63.5723C465.409 63.6005 465.292 63.63 465.174 63.6572C465.292 63.63 465.409 63.6005 465.526 63.5723ZM39.7217 63.3916C39.5801 63.4334 39.4373 63.4728 39.2939 63.5127C39.4373 63.4728 39.5801 63.4334 39.7217 63.3916ZM268.691 61.0332L269.308 62.0527C269.074 62.0394 268.831 62.0322 268.577 62.0322H255.497V61.0322H268.577C268.615 61.0322 268.653 61.0329 268.691 61.0332ZM621.822 61.0332L622.438 62.0527C622.205 62.0394 621.961 62.0322 621.707 62.0322H608.627V61.0322H621.707C621.746 61.0322 621.784 61.0329 621.822 61.0332ZM534.605 62.0322H516.557V61.0322H533.605V51.5596H516.557V50.5596H534.605V62.0322ZM499.757 51.5596H484.709V61.0322H499.757V62.0322H483.709V50.5596H499.757V51.5596ZM284.001 54.6953L284.311 54.9609C286.351 56.7677 287.705 59.0691 288.404 61.8223L283.759 54.4941C283.84 54.5606 283.921 54.6271 284.001 54.6953ZM637.131 54.6953L637.44 54.9609C639.481 56.7677 640.835 59.0691 641.534 61.8223L636.891 54.4951C636.971 54.5611 637.052 54.6276 637.131 54.6953ZM110.961 57.6924C110.934 57.7254 110.905 57.7572 110.877 57.79V57.7891C110.905 57.7564 110.934 57.7252 110.961 57.6924ZM476.279 57.6924C476.252 57.7254 476.223 57.7572 476.195 57.79H476.194C476.222 57.757 476.252 57.7256 476.279 57.6924ZM111.297 57.2656C111.222 57.3654 111.143 57.4627 111.064 57.5605C111.143 57.4627 111.222 57.3654 111.297 57.2656ZM476.616 57.2656C476.541 57.3655 476.462 57.4625 476.383 57.5605C476.462 57.4625 476.541 57.3655 476.616 57.2656ZM169.499 56.5752L168.901 55.7637L173.294 51.5596H165.804L165.066 50.5596H175.784L169.499 56.5752ZM585.414 52.5283H584.414V51.5596H555.975V50.5596H585.414V52.5283ZM422.832 52.5283H421.832V51.5596H393.392V50.5596H422.832V52.5283ZM19.4785 52.1914C19.421 52.1474 19.3634 52.1036 19.3066 52.0586L19.0586 51.8564C19.1959 51.9714 19.3363 52.0826 19.4785 52.1914ZM89.8389 49.792C93.0393 49.792 96.1072 50.0906 99.041 50.6885C99.0577 50.7572 99.0635 50.8204 99.0635 50.8799C99.0635 50.9628 99.0511 51.0744 98.8701 51.2715C98.782 51.3675 98.6565 51.4766 98.4854 51.5967C95.9298 51.0994 93.2657 50.8321 90.4932 50.7959L89.8389 50.792C86.2795 50.792 83.0459 51.0956 80.1377 51.7002C79.6787 51.4671 79.2763 51.2143 78.9258 50.9443C82.1737 50.1727 85.8141 49.792 89.8389 49.792ZM455.156 49.792C458.357 49.792 461.425 50.0906 464.358 50.6885C464.375 50.7572 464.381 50.8204 464.381 50.8799C464.381 50.9628 464.369 51.0744 464.188 51.2715C464.099 51.3675 463.974 51.4766 463.803 51.5967C461.247 51.0994 458.583 50.832 455.811 50.7959L455.156 50.792C451.597 50.792 448.364 51.0957 445.456 51.7002C444.997 51.4669 444.594 51.2145 444.243 50.9443C447.491 50.1727 451.131 49.792 455.156 49.792ZM342.251 49.8564C345.894 49.8564 349.204 50.2164 352.172 50.9453C351.806 51.2064 351.391 51.4538 350.922 51.6846C348.556 51.1849 345.965 50.9108 343.147 50.8633L342.251 50.8564C339.352 50.8564 336.626 51.1248 334.07 51.6572C333.588 51.437 333.133 51.1992 332.705 50.9404C335.668 50.2172 338.851 49.8564 342.251 49.8564ZM615.996 51.4082L616.088 51.5596H608.627V51.4082H615.996ZM262.866 51.4082L262.958 51.5596H255.497V51.4082H262.866ZM30.1836 49.792C32.9187 49.792 35.4727 50.0186 37.8428 50.4697C37.475 50.7634 37.0822 51.0313 36.666 51.2773C34.9645 51.0058 33.1633 50.8465 31.2617 50.8037L30.1836 50.792C27.3109 50.792 24.6504 51.0471 22.2021 51.5566C21.7689 51.3311 21.3592 51.0839 20.9746 50.8105C23.7808 50.1306 26.8523 49.792 30.1836 49.792ZM466.336 51.3486C466.33 51.3789 466.321 51.4085 466.313 51.4385C466.322 51.404 466.331 51.3698 466.338 51.335L466.336 51.3486Z" fill="#E9EAF8"/>
<path id="OSKAR GESTER" d="M29.184 64.768C23.424 64.768 18.5173 63.7653 14.464 61.76C10.4533 59.712 7.38133 56.9173 5.248 53.376C3.11467 49.8347 2.048 45.824 2.048 41.344C2.048 36.8213 3.09333 32.7893 5.184 29.248C7.31733 25.7067 10.4107 22.912 14.464 20.864C18.5173 18.816 23.424 17.792 29.184 17.792C34.9867 17.792 39.8933 18.816 43.904 20.864C47.9573 22.8693 51.0293 25.6427 53.12 29.184C55.2533 32.7253 56.32 36.7787 56.32 41.344C56.32 45.824 55.2533 49.8347 53.12 53.376C51.0293 56.9173 47.9573 59.712 43.904 61.76C39.8933 63.7653 34.9867 64.768 29.184 64.768ZM29.184 55.04C33.536 55.04 36.992 53.9093 39.552 51.648C42.112 49.344 43.392 46.1653 43.392 42.112V40.448C43.392 36.3947 42.112 33.2373 39.552 30.976C36.992 28.672 33.536 27.52 29.184 27.52C24.832 27.52 21.376 28.672 18.816 30.976C16.256 33.2373 14.976 36.3947 14.976 40.448V42.112C14.976 46.1653 16.256 49.344 18.816 51.648C21.376 53.9093 24.832 55.04 29.184 55.04ZM88.967 64.768C84.999 64.768 81.3083 64.384 77.895 63.616C74.4817 62.8053 71.5163 61.4827 68.999 59.648C66.4817 57.7707 64.5403 55.2533 63.175 52.096L74.631 48.704C75.4843 50.24 76.487 51.4987 77.639 52.48C78.8337 53.4187 80.391 54.1227 82.311 54.592C84.231 55.0187 86.7057 55.232 89.735 55.232C93.447 55.232 96.263 54.8267 98.183 54.016C100.103 53.2053 101.063 52.16 101.063 50.88C101.063 49.8987 100.594 49.0667 99.655 48.384C98.7163 47.7013 96.9243 47.2107 94.279 46.912L81.927 45.376C76.2097 44.6507 71.943 43.2427 69.127 41.152C66.311 39.0613 64.903 36.16 64.903 32.448C64.903 29.1627 65.8843 26.4533 67.847 24.32C69.8097 22.144 72.583 20.5227 76.167 19.456C79.7937 18.3467 84.0177 17.792 88.839 17.792C92.3377 17.792 95.6657 18.1547 98.823 18.88C102.023 19.6053 104.86 20.8427 107.335 22.592C109.852 24.3413 111.836 26.7947 113.287 29.952L102.343 33.344C101.063 30.9547 99.2497 29.3547 96.903 28.544C94.599 27.7333 91.5697 27.328 87.815 27.328C84.6577 27.328 82.119 27.6693 80.199 28.352C78.3217 28.992 77.383 29.9307 77.383 31.168C77.383 32.2347 77.895 33.088 78.919 33.728C79.9857 34.368 81.7137 34.8373 84.103 35.136L97.671 36.8C103.218 37.4827 107.271 38.912 109.831 41.088C112.391 43.264 113.671 46.144 113.671 49.728C113.671 53.056 112.647 55.8507 110.599 58.112C108.551 60.3307 105.671 61.9947 101.959 63.104C98.247 64.2133 93.9163 64.768 88.967 64.768ZM123.142 64V18.56H135.942V38.464L156.678 18.56H172.294L152.774 37.248L172.486 64H157.126L143.558 45.056L135.942 52.288V64H123.142ZM175.392 64L197.536 18.56H211.104L233.248 64H219.616L214.624 53.248H193.184L188.256 64H175.392ZM197.28 44.544H210.656L204 30.208L197.28 44.544ZM240.697 64V18.56H268.729C274.788 18.56 279.332 19.8613 282.361 22.464C285.433 25.024 286.969 28.7573 286.969 33.664C286.969 37.2053 286.116 40.1493 284.409 42.496C282.745 44.8427 280.313 46.592 277.113 47.744L287.417 64H272.825L263.993 49.408H253.497V64H240.697ZM267.577 28.032H253.497V40.256H267.577C271.972 40.256 274.169 38.3147 274.169 34.432V33.792C274.169 29.952 271.972 28.032 267.577 28.032ZM340.227 64.832C334.894 64.832 330.158 63.872 326.019 61.952C321.923 59.9893 318.702 57.2587 316.355 53.76C314.051 50.2187 312.899 46.0587 312.899 41.28C312.899 36.5013 314.115 32.3627 316.547 28.864C318.979 25.3653 322.328 22.656 326.595 20.736C330.862 18.816 335.747 17.856 341.251 17.856C346.072 17.856 350.254 18.496 353.795 19.776C357.379 21.0133 360.28 22.7413 362.499 24.96C364.76 27.136 366.296 29.632 367.107 32.448L355.651 35.2C354.798 33.1093 353.646 31.5307 352.195 30.464C350.787 29.3547 349.166 28.608 347.331 28.224C345.496 27.7973 343.534 27.584 341.443 27.584C338.542 27.584 335.896 28.0747 333.507 29.056C331.16 29.9947 329.283 31.424 327.875 33.344C326.51 35.264 325.827 37.696 325.827 40.64V41.92C325.827 44.8213 326.531 47.2747 327.939 49.28C329.39 51.2427 331.374 52.736 333.891 53.76C336.451 54.7413 339.352 55.232 342.595 55.232C345.24 55.232 347.587 54.9333 349.635 54.336C351.683 53.696 353.283 52.8 354.435 51.648C355.63 50.496 356.227 49.088 356.227 47.424V46.976H339.843V38.144H368.003V64H357.827L357.315 59.52C355.139 61.3547 352.558 62.6987 349.571 63.552C346.584 64.4053 343.47 64.832 340.227 64.832ZM378.592 64V18.56H420.832V28.032H391.392V36.48H417.952V45.568H391.392V54.528H421.28V64H378.592ZM454.285 64.768C450.317 64.768 446.626 64.384 443.213 63.616C439.799 62.8053 436.834 61.4827 434.317 59.648C431.799 57.7707 429.858 55.2533 428.493 52.096L439.949 48.704C440.802 50.24 441.805 51.4987 442.957 52.48C444.151 53.4187 445.709 54.1227 447.629 54.592C449.549 55.0187 452.023 55.232 455.053 55.232C458.765 55.232 461.581 54.8267 463.501 54.016C465.421 53.2053 466.381 52.16 466.381 50.88C466.381 49.8987 465.911 49.0667 464.973 48.384C464.034 47.7013 462.242 47.2107 459.597 46.912L447.245 45.376C441.527 44.6507 437.261 43.2427 434.445 41.152C431.629 39.0613 430.221 36.16 430.221 32.448C430.221 29.1627 431.202 26.4533 433.165 24.32C435.127 22.144 437.901 20.5227 441.485 19.456C445.111 18.3467 449.335 17.792 454.157 17.792C457.655 17.792 460.983 18.1547 464.141 18.88C467.341 19.6053 470.178 20.8427 472.653 22.592C475.17 24.3413 477.154 26.7947 478.605 29.952L467.661 33.344C466.381 30.9547 464.567 29.3547 462.221 28.544C459.917 27.7333 456.887 27.328 453.133 27.328C449.975 27.328 447.437 27.6693 445.517 28.352C443.639 28.992 442.701 29.9307 442.701 31.168C442.701 32.2347 443.213 33.088 444.237 33.728C445.303 34.368 447.031 34.8373 449.421 35.136L462.989 36.8C468.535 37.4827 472.589 38.912 475.149 41.088C477.709 43.264 478.989 46.144 478.989 49.728C478.989 53.056 477.965 55.8507 475.917 58.112C473.869 60.3307 470.989 61.9947 467.277 63.104C463.565 64.2133 459.234 64.768 454.285 64.768ZM501.757 64V28.032H483.709V18.56H532.605V28.032H514.557V64H501.757ZM541.175 64V18.56H583.415V28.032H553.975V36.48H580.535V45.568H553.975V54.528H583.863V64H541.175ZM593.827 64V18.56H621.859C627.918 18.56 632.462 19.8613 635.491 22.464C638.563 25.024 640.099 28.7573 640.099 33.664C640.099 37.2053 639.246 40.1493 637.539 42.496C635.875 44.8427 633.443 46.592 630.243 47.744L640.547 64H625.955L617.123 49.408H606.627V64H593.827ZM620.707 28.032H606.627V40.256H620.707C625.102 40.256 627.299 38.3147 627.299 34.432V33.792C627.299 29.952 625.102 28.032 620.707 28.032Z" fill="#E9EAF8"/>
<path id="Subtract_2" d="M318.068 93.958C318.314 94.1844 318.565 94.4064 318.819 94.624C318.711 94.772 318.604 94.9213 318.499 95.0723L318.274 95.4023C315.992 98.8303 314.852 102.859 314.852 107.488L314.864 108.377C314.999 112.784 316.148 116.648 318.308 119.968C320.654 123.466 323.875 126.198 327.971 128.16C331.851 129.96 336.256 130.916 341.187 131.028L342.179 131.04C345.219 131.04 348.147 130.665 350.962 129.915L351.523 129.76C354.51 128.906 357.092 127.562 359.268 125.728L359.779 130.208H369.955V104.352H341.795V113.184H358.179V113.632C358.179 115.296 357.581 116.704 356.387 117.856L356.166 118.069C355.034 119.119 353.507 119.944 351.587 120.544L351.199 120.652C349.244 121.177 347.027 121.44 344.547 121.44L343.943 121.435C341.143 121.381 338.605 120.951 336.327 120.146L335.843 119.968C333.326 118.944 331.342 117.451 329.892 115.488C328.572 113.608 327.87 111.334 327.787 108.667L327.779 108.128V106.848C327.779 104.292 328.294 102.123 329.323 100.339C329.651 100.441 329.982 100.538 330.314 100.631C329.31 102.268 328.779 104.322 328.779 106.848V108.128C328.779 110.86 329.44 113.102 330.707 114.909C332.032 116.695 333.85 118.074 336.201 119.034L336.66 119.203C338.976 120.022 341.601 120.44 344.547 120.44C347.119 120.44 349.369 120.149 351.308 119.584C353.239 118.978 354.676 118.152 355.68 117.148L355.687 117.143L355.693 117.136C356.557 116.303 357.037 115.332 357.151 114.184H340.795V103.352H370.955V131.208H358.887L358.474 127.596C356.509 128.971 354.281 130.012 351.798 130.722C348.718 131.602 345.51 132.04 342.179 132.04C336.725 132.04 331.842 131.058 327.551 129.067L327.539 129.062C323.295 127.028 319.931 124.184 317.477 120.525L317.469 120.514C315.046 116.79 313.852 112.434 313.852 107.488C313.852 102.531 315.115 98.1872 317.678 94.501L318.068 93.958ZM54.4697 92.7246C54.9972 93.4085 55.4848 94.1247 55.9287 94.876L56.335 95.5781C58.2996 99.1201 59.2724 103.12 59.2725 107.552C59.2725 112.195 58.1645 116.384 55.9326 120.092L55.9336 120.093C53.7357 123.816 50.5121 126.735 46.3066 128.86L46.3037 128.862C42.1195 130.954 37.0496 131.976 31.1357 131.976C25.2629 131.976 20.1962 130.954 15.9727 128.864L15.9609 128.858C12.0596 126.866 8.98737 124.177 6.77441 120.787L6.34375 120.1C4.10887 116.39 3 112.198 3 107.552C3.00004 102.869 4.08495 98.6576 6.27539 94.9473L6.2793 94.9404L6.71094 94.252C6.79356 94.1255 6.87776 94.0004 6.96289 93.876C7.20687 94.1088 7.45615 94.3367 7.70996 94.5605C7.5121 94.854 7.31923 95.1515 7.13574 95.4561L6.75684 96.126C4.91937 99.5034 4.00004 103.312 4 107.552L4.0127 108.387C4.13773 112.532 5.20023 116.264 7.2002 119.584C9.33349 123.125 12.4054 125.92 16.416 127.968C20.2161 129.848 24.7663 130.846 30.0664 130.964L31.1357 130.976C36.757 130.976 41.538 130.035 45.4775 128.153L45.8564 127.968C49.9096 125.92 52.9817 123.125 55.0723 119.584C57.0722 116.264 58.1347 112.532 58.2598 108.387L58.2725 107.552C58.2724 102.987 57.2056 98.9329 55.0723 95.3916C54.6743 94.7174 54.2383 94.073 53.7686 93.4551C54.0072 93.2159 54.2415 92.973 54.4697 92.7246ZM66.2832 95.0273C66.5634 95.2724 66.8501 95.5111 67.1445 95.7422C66.9519 96.6571 66.8555 97.6284 66.8555 98.6562L66.8594 99.002C66.9447 102.549 68.3512 105.335 71.0791 107.36C73.8951 109.451 78.1618 110.859 83.8789 111.584L96.2314 113.12C98.8766 113.419 100.669 113.909 101.607 114.592C102.546 115.274 103.016 116.107 103.016 117.088L103.004 117.325C102.891 118.498 101.935 119.464 100.135 120.224L99.7646 120.371C97.8597 121.084 95.1674 121.44 91.6875 121.44L90.5771 121.43C88.0478 121.383 85.9427 121.173 84.2627 120.8C82.3429 120.33 80.7854 119.627 79.5908 118.688C78.4388 117.707 77.4363 116.448 76.583 114.912L65.127 118.304C66.4923 121.461 68.4338 123.979 70.9512 125.856C73.4684 127.691 76.4336 129.014 79.8467 129.824C83.0468 130.544 86.4911 130.927 90.1787 130.972L90.9189 130.976C95.559 130.976 99.6555 130.489 103.208 129.514L103.911 129.312C107.391 128.272 110.14 126.744 112.157 124.729L112.551 124.32C114.471 122.2 115.491 119.611 115.611 116.554L115.623 115.936C115.623 112.464 114.422 109.652 112.02 107.502L111.783 107.296C109.383 105.256 105.671 103.872 100.646 103.145L99.623 103.008L91.1123 101.964C92.9986 101.931 94.8169 101.82 96.5645 101.625L99.7451 102.016L100.784 102.154C105.9 102.894 109.826 104.32 112.431 106.534C115.231 108.914 116.623 112.081 116.623 115.936C116.623 119.487 115.522 122.529 113.292 124.991L113.286 124.998C111.224 127.232 108.412 128.903 104.907 130.048L104.197 130.271C100.371 131.414 95.9396 131.976 90.9189 131.976C86.887 131.976 83.122 131.586 79.6279 130.8L79.6162 130.797C76.0901 129.959 72.9995 128.586 70.3623 126.664L70.3535 126.657C67.6829 124.666 65.6369 122.003 64.209 118.701L63.7617 117.665L77.0684 113.726L77.457 114.427C78.2568 115.866 79.1816 117.021 80.2217 117.911C81.2745 118.735 82.6867 119.385 84.501 119.828C86.32 120.23 88.7074 120.44 91.6875 120.44C95.3537 120.44 98.0104 120.036 99.7461 119.303L100.069 119.159C101.61 118.441 102.016 117.704 102.016 117.088C102.016 116.488 101.752 115.934 101.019 115.4C100.312 114.887 98.7609 114.412 96.1191 114.113L96.1074 114.112L83.7559 112.576H83.7529C78.1436 111.865 73.7786 110.491 70.7695 108.37L70.4834 108.163C67.3965 105.871 65.8555 102.663 65.8555 98.6562C65.8555 97.3728 65.9974 96.1619 66.2832 95.0273ZM431.601 95.0273C431.881 95.2724 432.167 95.5111 432.462 95.7422C432.269 96.6571 432.173 97.6284 432.173 98.6562L432.177 99.002C432.262 102.549 433.669 105.335 436.396 107.36C439.212 109.451 443.479 110.859 449.196 111.584L461.549 113.12C464.194 113.419 465.986 113.909 466.925 114.592C467.863 115.274 468.333 116.107 468.333 117.088L468.321 117.325C468.209 118.498 467.253 119.464 465.453 120.224L465.082 120.371C463.177 121.084 460.485 121.44 457.005 121.44L455.895 121.43C453.365 121.383 451.261 121.173 449.581 120.8C447.661 120.33 446.103 119.627 444.908 118.688C443.756 117.707 442.754 116.448 441.9 114.912L430.444 118.304C431.81 121.461 433.751 123.979 436.269 125.856C438.786 127.691 441.752 129.014 445.165 129.824C448.365 130.544 451.809 130.927 455.496 130.972L456.236 130.976C460.876 130.976 464.973 130.489 468.525 129.514L469.229 129.312C472.708 128.272 475.457 126.744 477.475 124.729L477.869 124.32C479.789 122.2 480.809 119.611 480.929 116.554L480.94 115.936C480.94 112.464 479.739 109.652 477.337 107.502L477.101 107.296C474.541 105.12 470.487 103.69 464.94 103.008L456.431 101.964C458.317 101.931 460.135 101.82 461.882 101.625L465.062 102.016L466.102 102.154C471.217 102.894 475.144 104.321 477.748 106.534C480.548 108.914 481.94 112.081 481.94 115.936C481.94 119.487 480.84 122.529 478.609 124.991L478.604 124.998C476.541 127.232 473.729 128.903 470.225 130.048L469.515 130.271C465.688 131.414 461.257 131.976 456.236 131.976C452.204 131.976 448.439 131.586 444.945 130.8L444.934 130.797C441.407 129.959 438.317 128.586 435.68 126.664L435.671 126.657C433 124.666 430.954 122.003 429.526 118.701L429.079 117.665L442.386 113.726L442.774 114.427C443.574 115.866 444.499 117.021 445.539 117.911C446.592 118.735 448.004 119.385 449.818 119.828C451.637 120.23 454.025 120.44 457.005 120.44C460.671 120.44 463.328 120.036 465.063 119.303L465.387 119.159C466.927 118.441 467.333 117.704 467.333 117.088C467.333 116.488 467.07 115.934 466.337 115.4C465.631 114.887 464.079 114.412 461.437 114.113L461.425 114.112L449.073 112.576H449.07C443.461 111.865 439.097 110.491 436.088 108.37L435.801 108.163C432.714 105.871 431.173 102.663 431.173 98.6562C431.173 97.3728 431.315 96.1619 431.601 95.0273ZM125.094 130.208H137.895V118.496L145.51 111.264L159.078 130.208H174.438L154.727 103.456L157.074 101.208H158.52L156.052 103.57L176.012 130.658L190.363 101.208H191.477L177.344 130.208H190.208L195.136 119.456H216.576L221.568 130.208H235.2L221.068 101.208H222.181L236.8 131.208H220.93L215.938 120.456H195.777L190.85 131.208H158.564L145.365 112.78L138.895 118.925V131.208H124.094V101.208H125.094V130.208ZM242.649 130.208H255.449V115.616H265.945L274.777 130.208H289.369L279.065 113.952C282.265 112.8 284.697 111.051 286.361 108.704C287.849 106.659 288.687 104.16 288.878 101.208H289.88C289.687 104.337 288.8 107.043 287.176 109.281L287.177 109.282C285.586 111.525 283.363 113.236 280.557 114.438L291.187 131.208H274.214L265.382 116.616H256.449V131.208H241.649V101.208H242.649V130.208ZM394.344 101.688H420.904V112.776H394.344V119.736H424.232V131.208H379.544V101.208H380.544V130.208H423.232V120.736H393.344V111.776H419.904V102.688H393.344V101.208H394.344V101.688ZM517.509 131.208H502.709V101.208H503.709V130.208H516.509V101.208H517.509V131.208ZM556.927 101.688H583.486V112.776H556.927V119.736H586.814V131.208H542.127V101.208H543.127V130.208H585.814V120.736H555.927V111.776H582.486V102.688H555.927V101.208H556.927V101.688ZM595.779 130.208H608.579V115.616H619.075L627.907 130.208H642.499L632.195 113.952C635.395 112.8 637.827 111.051 639.491 108.704C640.978 106.659 641.817 104.16 642.008 101.208H643.01C642.817 104.337 641.93 107.043 640.306 109.281L640.307 109.282C638.716 111.525 636.493 113.236 633.687 114.438L644.317 131.208H627.344L618.512 116.616H609.579V131.208H594.779V101.208H595.779V130.208ZM43.6787 99.8193C44.7874 101.711 45.3438 103.989 45.3438 106.656V108.32L45.3408 108.697C45.2634 112.571 43.9839 115.624 41.5039 117.856C38.9439 120.118 35.4875 121.248 31.1357 121.248L30.3311 121.234C26.3561 121.102 23.1686 119.976 20.7686 117.856C18.2885 115.624 17.0091 112.571 16.9316 108.697L16.9277 108.32V106.656C16.9277 104.246 17.3815 102.153 18.2871 100.376C18.612 100.474 18.9397 100.568 19.2705 100.656C18.3836 102.313 17.9277 104.301 17.9277 106.656V108.32C17.9278 112.141 19.1235 115.026 21.4307 117.106L21.6514 117.297C23.9625 119.233 27.0895 120.248 31.1357 120.248C35.3127 120.248 38.5103 119.166 40.8418 117.106C43.149 115.026 44.3437 112.141 44.3438 108.32V106.656C44.3438 104.059 43.7902 101.906 42.7139 100.154C43.0388 100.048 43.3603 99.9357 43.6787 99.8193ZM212.608 110.752H199.232L205.952 96.416L212.608 110.752ZM200.806 109.752H211.041L205.947 98.7812L200.806 109.752ZM256.449 105.464H269.529C271.601 105.464 272.968 105.004 273.812 104.259C274.539 103.616 275.006 102.644 275.102 101.208H276.103C275.894 104.712 273.704 106.464 269.529 106.464H255.449V101.208H256.449V105.464ZM609.579 105.464H622.659C624.731 105.464 626.098 105.004 626.941 104.259C627.669 103.616 628.135 102.644 628.231 101.208H629.233C629.025 104.712 626.834 106.464 622.659 106.464H608.579V101.208H609.579V105.464ZM150.106 92.9482L137.895 104.672V101.208H138.895V102.325L140.059 101.208H140.895V100.405L149.518 92.127L150.106 92.9482ZM357.002 102.581L356.678 101.786C356.597 101.588 356.513 101.395 356.427 101.208H357.519L357.604 101.408L358.437 101.208H362.717L357.002 102.581ZM114.957 93.4951C115.387 94.204 115.785 94.9525 116.147 95.7422L116.623 96.7783L103.804 100.751L103.555 100.287C103.723 100.24 103.891 100.194 104.057 100.145L104.838 99.9004C106.433 99.3794 107.928 98.7458 109.312 97.9961L115.239 96.1602C114.936 95.5003 114.609 94.8715 114.259 94.2734C114.336 94.1932 114.415 94.1149 114.49 94.0332L114.503 94.0195L114.516 94.0049C114.667 93.8373 114.814 93.6669 114.957 93.4951ZM480.274 93.4951C480.704 94.2042 481.102 94.9526 481.465 95.7422L481.941 96.7783L469.121 100.751L468.872 100.287C469.04 100.24 469.208 100.194 469.374 100.145L470.155 99.9004C471.75 99.3794 473.246 98.7458 474.629 97.9961L480.557 96.1602C480.253 95.5003 479.926 94.8715 479.576 94.2734C479.653 94.1932 479.732 94.1149 479.808 94.0332L479.82 94.0195L479.833 94.0049C479.985 93.8373 480.131 93.6669 480.274 93.4951ZM332.552 97.0811C332.472 97.0621 332.393 97.0439 332.313 97.0244L332.315 97.0225C332.394 97.0419 332.473 97.0622 332.552 97.0811ZM39.5215 96.9131L39.5195 96.9121C39.6227 96.8862 39.7258 96.8618 39.8281 96.835C39.7264 96.8617 39.6241 96.8873 39.5215 96.9131ZM621.04 95.2402H611.579V94.2402H620.435L621.04 95.2402ZM267.91 95.2402H258.449V94.2402H267.305L267.91 95.2402ZM498.709 84.7676H485.661V94.2402H498.709V95.2402H484.661V83.7676H498.709V84.7676ZM535.558 95.2402H519.509V94.2402H534.558V84.7676H519.509V83.7676H535.558V95.2402ZM196.716 90.4561L196.503 90.8916L196.703 90.4561H196.716ZM171.907 88.3887L171.31 87.5771L174.246 84.7676H169.24L168.503 83.7676H176.736L171.907 88.3887ZM20.3506 85.335C20.3777 85.356 20.4034 85.3786 20.4307 85.3994C20.3731 85.3554 20.3155 85.3116 20.2588 85.2666L20.2461 85.2559C20.2803 85.2831 20.3161 85.3081 20.3506 85.335ZM20.1152 85.1475C20.139 85.1669 20.1616 85.1878 20.1855 85.207L20.0107 85.0645C20.0449 85.093 20.0808 85.1193 20.1152 85.1475ZM467.288 84.5566C467.282 84.587 467.273 84.6165 467.266 84.6465C467.274 84.612 467.283 84.5778 467.29 84.543L467.288 84.5566ZM347.23 84.1836C347.166 84.1933 347.101 84.2008 347.035 84.21C346.908 84.1999 346.78 84.1926 346.651 84.1836H347.23ZM94.7373 84.0898L94.7598 84.0918L94.7822 84.0947C94.9257 84.1109 95.0645 84.1304 95.1992 84.1475C95.1216 84.1594 95.0424 84.1693 94.9619 84.1807C93.8097 84.0797 92.6376 84.0195 91.4453 84.0039L90.791 84C89.1228 84 87.5261 84.0671 86.001 84.2002C85.3165 84.1189 84.7105 84.0212 84.1797 83.9053C83.7414 83.7971 83.3487 83.6752 82.9951 83.5488C84.2675 83.355 85.592 83.2142 86.9678 83.123L94.7373 84.0898ZM460.055 84.0898L460.077 84.0918L460.1 84.0947C460.243 84.1109 460.382 84.1304 460.517 84.1475C460.439 84.1594 460.36 84.1693 460.279 84.1807C459.127 84.0797 457.955 84.0195 456.763 84.0039L456.108 84C454.44 84 452.844 84.067 451.318 84.2002C450.634 84.1189 450.028 84.0212 449.497 83.9053C449.059 83.797 448.666 83.6753 448.312 83.5488C449.585 83.355 450.909 83.2142 452.285 83.123L460.055 84.0898ZM31.1357 83C32.7181 83 34.2396 83.0782 35.7002 83.2295C34.8987 83.5872 33.9806 83.8601 32.9258 84.0332C32.6901 84.0242 32.4528 84.0171 32.2139 84.0117L31.1357 84C30.0283 84 28.9525 84.0385 27.9082 84.1143C26.8191 83.9787 25.8664 83.7438 25.0312 83.4219C26.9576 83.1409 28.9929 83 31.1357 83Z" fill="#E9EAF8"/>
</g>
</svg>
