<svg width="887" height="171" viewBox="0 0 887 171" fill="none" xmlns="http://www.w3.org/2000/svg">
<g id="&#226;&#128;&#148;&#195;&#142;&#195;&#147;&#195;&#136;_1">
<path id="Vector" d="M886.497 49.1947H795.357C746.642 47.44 738.964 45.0436 731.947 32.1348V0H730.05V32.1356C723.505 44.1749 716.388 47.0692 675.942 48.8281C665.919 49.2636 655.756 49.4773 645.577 49.4773H0V49.9411H646.821C658.514 49.9411 670.186 50.2162 681.634 50.7964C710.857 52.2776 720.57 54.6973 726.568 61.9172C728.928 64.7583 730.05 67.6526 730.05 70.5519V170.5H731.947V70.5561C731.947 67.6185 733.096 64.6868 735.52 61.8092C743.231 52.6475 756.461 51.2669 809.49 49.6585C809.715 49.6651 809.263 49.6518 809.49 49.6585H886.5V49.1947H886.497Z" fill="#535358"/>
</g>
</svg>
